<svg width="100" height="100" viewBox="0 0 100 100" fill="none" xmlns="http://www.w3.org/2000/svg">
<path d="M96.875 70.3125H91.8457L90.5781 65.2461C90.4936 64.908 90.2986 64.6079 90.024 64.3935C89.7493 64.179 89.4109 64.0625 89.0625 64.0625H83.8652L90.6934 51.3808C91.5521 51.5925 92.446 51.6195 93.3159 51.4601C94.1858 51.3006 95.012 50.9584 95.7399 50.4559C96.4677 49.9535 97.0806 49.3023 97.5381 48.5454C97.9956 47.7884 98.2872 46.943 98.3937 46.065C98.5002 45.1871 98.4192 44.2965 98.1559 43.4521C97.8926 42.6078 97.4532 41.8289 96.8666 41.167C96.2799 40.5051 95.5595 39.9753 94.7529 39.6125C93.9463 39.2497 93.0719 39.0622 92.1875 39.0625C91.7516 39.0621 91.3169 39.1079 90.8906 39.1992L84.3086 25.9648C84.2169 25.7803 84.0896 25.6158 83.9341 25.4807C83.7785 25.3456 83.5978 25.2426 83.4023 25.1776C83.2068 25.1126 83.0004 25.0869 82.7949 25.102C82.5894 25.1171 82.389 25.1727 82.2051 25.2656L73.7285 29.5469C71.3368 27.5092 68.2653 26.4472 65.1257 26.5724C61.9861 26.6976 59.0089 28.0009 56.7871 30.2226C56.6417 30.3676 56.5263 30.5398 56.4475 30.7295C56.3687 30.9191 56.3281 31.1224 56.3279 31.3277C56.3277 31.533 56.368 31.7364 56.4464 31.9261C56.5249 32.1159 56.64 32.2883 56.7852 32.4336L72.2539 47.9023C72.3991 48.0475 72.5716 48.1626 72.7613 48.241C72.9511 48.3195 73.1544 48.3598 73.3598 48.3596C73.5651 48.3594 73.7684 48.3188 73.958 48.24C74.1476 48.1612 74.3199 48.0458 74.4648 47.9004C76.534 45.831 77.8114 43.1011 78.0744 40.1866C78.3374 37.272 77.5695 34.3576 75.9043 31.9511L82.2109 28.7636L88.0957 40.5957C87.4312 41.1699 86.8956 41.878 86.5238 42.6736C86.152 43.4692 85.9525 44.3343 85.9383 45.2124C85.9241 46.0905 86.0955 46.9616 86.4414 47.7688C86.7873 48.576 87.2998 49.3011 87.9453 49.8965L80.3164 64.0625H73.4375C73.0891 64.0625 72.7507 64.179 72.476 64.3935C72.2014 64.6079 72.0064 64.908 71.9219 65.2461L70.6543 70.3125H41.8457L41.0645 67.1875H52.3438C53.7937 67.1859 55.1837 66.6092 56.209 65.5839C57.2342 64.5587 57.8109 63.1686 57.8125 61.7187V41.4062C57.8109 39.9563 57.2342 38.5662 56.209 37.541C55.1837 36.5158 53.7937 35.9391 52.3438 35.9375H13.2812C11.8313 35.9391 10.4413 36.5158 9.41603 37.541C8.39079 38.5662 7.8141 39.9563 7.8125 41.4062V61.7187C7.8141 63.1686 8.39079 64.5587 9.41603 65.5839C10.4413 66.6092 11.8313 67.1859 13.2812 67.1875H24.5605L23.7793 70.3125H3.125C2.7106 70.3125 2.31317 70.4771 2.02015 70.7701C1.72712 71.0631 1.5625 71.4606 1.5625 71.875V96.875C1.5625 97.2894 1.72712 97.6868 2.02015 97.9798C2.31317 98.2729 2.7106 98.4375 3.125 98.4375H7.8125C8.2269 98.4375 8.62433 98.2729 8.91735 97.9798C9.21038 97.6868 9.375 97.2894 9.375 96.875V79.6875H90.625V96.875C90.625 97.2894 90.7896 97.6868 91.0826 97.9798C91.3757 98.2729 91.7731 98.4375 92.1875 98.4375H96.875C97.2894 98.4375 97.6868 98.2729 97.9799 97.9798C98.2729 97.6868 98.4375 97.2894 98.4375 96.875V71.875C98.4375 71.4606 98.2729 71.0631 97.9799 70.7701C97.6868 70.4771 97.2894 70.3125 96.875 70.3125ZM73.2676 44.4961L60.1914 31.4199C61.9805 30.1487 64.159 29.5455 66.3471 29.7153C68.5353 29.8852 70.5945 30.8175 72.166 32.3496C72.2596 32.4825 72.3737 32.5999 72.5039 32.6972C73.9668 34.2771 74.8412 36.3124 74.9803 38.4611C75.1193 40.6097 74.5146 42.7408 73.2676 44.4961ZM92.1875 42.1875C92.8056 42.1875 93.4098 42.3708 93.9237 42.7141C94.4376 43.0575 94.8381 43.5456 95.0746 44.1166C95.3111 44.6876 95.373 45.3159 95.2525 45.9221C95.1319 46.5283 94.8343 47.0851 94.3972 47.5222C93.9602 47.9592 93.4034 48.2568 92.7972 48.3774C92.191 48.498 91.5626 48.4361 90.9916 48.1996C90.4206 47.9631 89.9325 47.5625 89.5892 47.0486C89.2458 46.5347 89.0625 45.9305 89.0625 45.3125C89.0636 44.484 89.3932 43.6898 89.979 43.104C90.5648 42.5181 91.359 42.1886 92.1875 42.1875ZM74.6582 67.1875H87.8418L88.623 70.3125H73.877L74.6582 67.1875ZM10.9375 41.4062C10.938 40.7848 11.1851 40.1889 11.6245 39.7495C12.064 39.3101 12.6598 39.063 13.2812 39.0625H52.3438C52.9652 39.063 53.561 39.3101 54.0005 39.7495C54.4399 40.1889 54.687 40.7848 54.6875 41.4062V59.375H10.9375V41.4062ZM13.2812 64.0625C12.7971 64.0615 12.3251 63.9108 11.93 63.6311C11.5349 63.3514 11.236 62.9563 11.0742 62.5H54.5508C54.389 62.9563 54.0901 63.3514 53.695 63.6311C53.2999 63.9108 52.8279 64.0615 52.3438 64.0625H13.2812ZM38.623 70.3125H27.002L27.7832 67.1875H37.8418L38.623 70.3125ZM6.25 95.3125H4.6875V79.6875H6.25V95.3125ZM95.3125 95.3125H93.75V79.6875H95.3125V95.3125ZM95.3125 76.5625H4.6875V73.4375H95.3125V76.5625Z" fill="#002568"/>
<path d="M53.125 18.75H50V7.8125C50 7.3981 49.8354 7.00067 49.5424 6.70765C49.2493 6.41462 48.8519 6.25 48.4375 6.25H17.1875C16.7731 6.25 16.3757 6.41462 16.0826 6.70765C15.7896 7.00067 15.625 7.3981 15.625 7.8125V18.75H12.5C12.0856 18.75 11.6882 18.9146 11.3951 19.2076C11.1021 19.5007 10.9375 19.8981 10.9375 20.3125V25C10.9375 25.4144 11.1021 25.8118 11.3951 26.1049C11.6882 26.3979 12.0856 26.5625 12.5 26.5625H14.0625V28.125C14.0625 28.5394 14.2271 28.9368 14.5201 29.2299C14.8132 29.5229 15.2106 29.6875 15.625 29.6875C16.0394 29.6875 16.4368 29.5229 16.7299 29.2299C17.0229 28.9368 17.1875 28.5394 17.1875 28.125V26.5625H48.4375V28.125C48.4375 28.5394 48.6021 28.9368 48.8951 29.2299C49.1882 29.5229 49.5856 29.6875 50 29.6875C50.4144 29.6875 50.8118 29.5229 51.1049 29.2299C51.3979 28.9368 51.5625 28.5394 51.5625 28.125V26.5625H53.125C53.5394 26.5625 53.9368 26.3979 54.2299 26.1049C54.5229 25.8118 54.6875 25.4144 54.6875 25V20.3125C54.6875 19.8981 54.5229 19.5007 54.2299 19.2076C53.9368 18.9146 53.5394 18.75 53.125 18.75ZM43.75 9.375H46.875V18.75H43.75V9.375ZM37.5 9.375H40.625V18.75H37.5V9.375ZM31.25 9.375H34.375V18.75H31.25V9.375ZM25 9.375H28.125V18.75H25V9.375ZM18.75 9.375H21.875V18.75H18.75V9.375ZM51.5625 23.4375H14.0625V21.875H51.5625V23.4375Z" fill="#002568"/>
</svg>
