<svg width="100" height="100" viewBox="0 0 100 100" fill="none" xmlns="http://www.w3.org/2000/svg">
<g clip-path="url(#clip0)">
<path d="M93.332 82.084H6.66838C4.83053 82.084 3.33517 80.5886 3.33517 78.7508V11.8782C3.33517 10.0403 4.83053 8.54495 6.66838 8.54495H25.0011C25.9215 8.54495 26.6677 7.79872 26.6677 6.87834C26.6677 5.95795 25.9215 5.21173 25.0011 5.21173H6.66838C2.99247 5.21173 0.00195312 8.20225 0.00195312 11.8782V78.7508C0.00195312 82.4267 2.99247 85.4172 6.66838 85.4172H35.7205L33.4024 93.6453C32.5062 96.8343 34.8974 100 38.2152 100H61.7852C65.0978 100 67.4956 96.8393 66.5979 93.6453C66.349 92.7593 65.4286 92.243 64.5426 92.4918C63.6566 92.7409 63.1401 93.6611 63.3891 94.5471C63.6887 95.6135 62.8881 96.6668 61.7852 96.6668H38.2152C37.1111 96.6668 36.3121 95.6119 36.6111 94.5481L39.1835 85.4172H93.332C94.2524 85.4172 94.9986 84.671 94.9986 83.7506C94.9986 82.8302 94.2524 82.084 93.332 82.084Z" fill="#002568"/>
<path d="M93.3318 5.21169H76.874C75.9537 5.21169 75.2074 5.95791 75.2074 6.8783C75.2074 7.79868 75.9537 8.54491 76.874 8.54491H93.3318C95.1696 8.54491 96.665 10.0403 96.665 11.8781V71.6677H77.499V70.7729C77.499 66.1781 74.5804 62.0849 70.2364 60.587L63.0014 58.0919C60.3523 57.1784 58.4707 54.8606 58.0691 52.1442C64.407 49.0264 68.3327 42.5775 68.3327 35.6744V27.5024H71.3413C72.4394 27.5024 73.3325 28.3957 73.3325 29.4935V35.7192C73.3325 36.7868 72.4981 37.6608 71.433 37.7082C70.6703 37.7424 70.0282 38.2905 69.8749 39.0384C68.9414 43.5905 66.7402 47.7702 63.5089 51.1259C62.4864 52.1877 63.2535 53.9485 64.7093 53.9485C65.1463 53.9485 65.583 53.7777 65.91 53.4379C69.3158 49.9009 71.7142 45.5567 72.8894 40.8165C75.0866 40.154 76.6657 38.1199 76.6657 35.7192V29.4935C76.6657 27.0318 74.986 24.9556 72.7125 24.3489V15.0918C72.7177 6.75372 65.934 0.00499982 57.5478 0H46.0547C40.1651 0 34.907 3.31134 32.3852 8.52032C29.4711 9.04822 27.2539 11.5888 27.2518 14.6361V19.4585C27.2518 20.3789 27.9981 21.1251 28.9184 21.1251C29.8388 21.1251 30.585 20.3789 30.585 19.4585V14.6374C30.5861 13.0464 31.8979 11.7529 33.5099 11.7529C34.2022 11.7529 34.8072 11.3325 35.0584 10.7102C36.8677 6.22811 41.1832 3.33322 46.0557 3.33322H57.547C64.0924 3.33717 69.3833 8.59616 69.3793 15.0907V24.1694C66.5336 24.1694 66.465 24.1285 66.0667 24.2823C57.3633 25.3345 48.7207 23.0031 41.7551 17.6644C40.8691 16.9854 39.5774 17.3531 39.1824 18.3977C38.161 21.0974 36.1013 23.235 33.2597 24.1694H28.6589C25.7229 24.1694 23.3345 26.5578 23.3345 29.4937V35.7194C23.3345 37.6578 24.3892 39.4446 26.0873 40.3823C26.8912 40.8265 27.9062 40.5365 28.352 39.7292C28.797 38.9234 28.5045 37.9095 27.6989 37.4645C27.0629 37.1133 26.6679 36.4445 26.6679 35.7194V29.4937C26.6679 28.3957 27.5612 27.5026 28.6591 27.5026H31.6677V35.4898C31.6679 39.2326 32.7758 42.8468 34.8718 45.9421C35.3878 46.7042 36.4238 46.9038 37.1863 46.3875C37.9483 45.8715 38.1479 44.8353 37.6317 44.0732C35.9105 41.5314 35.0009 38.563 35.0009 35.4887V27.0832C37.6344 26.0455 39.8887 24.1479 41.3899 21.5128C48.5 26.3645 56.8199 28.3996 64.9999 27.7419V35.6744C64.9999 46.3298 54.1467 53.6264 44.3191 49.5539C43.2425 49.1068 42.0403 49.8847 42.0161 51.0586C41.9415 54.5418 39.7862 57.1309 36.9988 58.0919L29.7476 60.5922C27.385 61.4112 25.3688 63.0384 24.069 65.1758C23.3922 66.2891 24.2015 67.7086 25.4915 67.7086C26.0542 67.7086 26.6033 67.4237 26.9171 66.9078C27.817 65.4279 29.2138 64.3023 30.8505 63.738C38.6783 61.0387 38.8054 61.0703 40.0503 60.3347C42.9244 66.2654 50.3241 68.0511 55.7208 64.9106C56.5164 64.4475 56.786 63.4273 56.3231 62.632C55.86 61.8364 54.8396 61.567 54.0444 62.0297C50.1031 64.3238 44.4839 62.9269 42.72 58.1025C43.8877 56.7513 44.715 55.1176 45.101 53.3423C48.2692 54.2252 51.6878 54.2331 54.9013 53.3481C55.6906 56.9686 58.3145 60.0018 61.9152 61.2435L69.1506 63.7382C72.1505 64.7725 74.1662 67.5997 74.1662 70.7731V71.6679H13.7311C12.8107 71.6679 12.0645 72.4141 12.0645 73.3345C12.0645 74.2549 12.8107 75.0011 13.7311 75.0011H98.3316C99.252 75.0011 99.9982 74.2549 99.9982 73.3345V11.8783C99.9982 8.20221 97.0077 5.21169 93.3318 5.21169Z" fill="#002568"/>
</g>
<defs>
<clipPath id="clip0">
<rect width="100" height="100" fill="white"/>
</clipPath>
</defs>
</svg>
