<svg width="100" height="100" viewBox="0 0 100 100" fill="none" xmlns="http://www.w3.org/2000/svg">
<path d="M100 16.6667V13.3333H33.3333C31.4933 13.3358 30.0024 14.8267 30 16.6667H23.3333V11.6667C23.3333 5.22298 18.1104 0 11.6667 0C5.22298 0 0 5.22298 0 11.6667V41.6667C0 48.1104 5.22298 53.3333 11.6667 53.3333C18.1104 53.3333 23.3333 48.1104 23.3333 41.6667V20H30C30.0024 21.84 31.4933 23.3309 33.3333 23.3333H100V20H41.6667V16.6667H100ZM3.33333 11.6667C3.33333 7.06462 7.06462 3.33333 11.6667 3.33333C16.2687 3.33333 20 7.06462 20 11.6667V20H3.33333V11.6667ZM20 41.6667C20 46.2687 16.2687 50 11.6667 50C7.06462 50 3.33333 46.2687 3.33333 41.6667V23.3333H20V41.6667ZM38.3333 20H33.3333V16.6667H38.3333V20Z" fill="#002568"/>
<path d="M6.6665 40H9.99984V43.3333H6.6665V40Z" fill="#002568"/>
<path d="M13.3335 40H16.6668V43.3333H13.3335V40Z" fill="#002568"/>
<path d="M6.6665 33.3333H9.99984V36.6666H6.6665V33.3333Z" fill="#002568"/>
<path d="M13.3335 33.3333H16.6668V36.6666H13.3335V33.3333Z" fill="#002568"/>
<path d="M6.6665 26.6667H9.99984V30H6.6665V26.6667Z" fill="#002568"/>
<path d="M13.3335 26.6667H16.6668V30H13.3335V26.6667Z" fill="#002568"/>
<path d="M90.0002 31.6667V95C89.9993 95.9204 89.2539 96.6659 88.3335 96.6667H71.6668C70.7464 96.6659 70.001 95.9204 70.0002 95V90C72.7606 89.9968 74.9969 87.7604 75.0002 85V78.3333H76.6668C79.4272 78.3301 81.6636 76.0938 81.6668 73.3334V60C83.5068 59.9976 84.9977 58.5067 85.0002 56.6667V55C85.0002 39.3522 72.3146 26.6667 56.6668 26.6667C41.019 26.6667 28.3335 39.3522 28.3335 55V56.6667C28.3359 58.5067 29.8268 59.9976 31.6668 60V73.3334C31.6701 76.0938 33.9064 78.3301 36.6668 78.3333H38.3335V85C38.3368 87.7604 40.5731 89.9968 43.3335 90H46.6668C49.4272 89.9968 51.6636 87.7604 51.6668 85V68.3334C51.6636 65.5729 49.4272 63.3366 46.6668 63.3334H43.3335C40.5731 63.3366 38.3368 65.5729 38.3335 68.3334V75H36.6668C35.7464 74.9992 35.001 74.2538 35.0002 73.3334V60H36.6668C39.4272 59.9968 41.6636 57.7604 41.6668 55C41.6668 46.7155 48.3823 40 56.6668 40C64.9513 40 71.6668 46.7155 71.6668 55C71.6701 57.7604 73.9064 59.9968 76.6668 60H78.3335V73.3334C78.3327 74.2538 77.5872 74.9992 76.6668 75H75.0002V68.3334C74.9969 65.5729 72.7606 63.3366 70.0002 63.3334H66.6668C63.9064 63.3366 61.6701 65.5729 61.6668 68.3334V85C61.6701 87.7604 63.9064 89.9968 66.6668 90V95C66.6701 97.7604 68.9064 99.9968 71.6668 100H88.3335C91.0939 99.9968 93.3302 97.7604 93.3335 95V31.6667C93.3343 30.7463 94.0798 30.0008 95.0002 30H100V26.6667H95.0002C92.2397 26.6699 90.0034 28.9063 90.0002 31.6667ZM41.6668 68.3334C41.6676 67.4129 42.4131 66.6675 43.3335 66.6667H46.6668C47.5872 66.6675 48.3327 67.4129 48.3335 68.3334V85C48.3327 85.9204 47.5872 86.6659 46.6668 86.6667H43.3335C42.4131 86.6659 41.6676 85.9204 41.6668 85V68.3334ZM75.0002 55C75.0002 44.8747 66.7922 36.6667 56.6668 36.6667C46.5415 36.6667 38.3335 44.8747 38.3335 55C38.3327 55.9204 37.5872 56.6659 36.6668 56.6667H31.6668V55C31.6668 41.1931 42.8599 30 56.6668 30C70.4738 30 81.6668 41.1931 81.6668 55V56.6667H76.6668C75.7464 56.6659 75.001 55.9204 75.0002 55ZM65.0002 85V68.3334C65.001 67.4129 65.7464 66.6675 66.6668 66.6667H70.0002C70.9206 66.6675 71.666 67.4129 71.6668 68.3334V85C71.666 85.9204 70.9206 86.6659 70.0002 86.6667H66.6668C65.7464 86.6659 65.001 85.9204 65.0002 85Z" fill="#002568"/>
</svg>
