<svg width="34" height="34" viewBox="0 0 34 34" fill="none" xmlns="http://www.w3.org/2000/svg">
<path d="M10.625 4.25H23.3807C26.8982 4.25 29.75 7.10175 29.75 10.6193V23.3821C29.75 26.8982 26.8982 29.75 23.3807 29.75H10.6193C7.10175 29.75 4.25 26.8982 4.25 23.3807V10.625C4.25 7.10458 7.10458 4.25 10.625 4.25V4.25Z" stroke="white" stroke-width="1.5" stroke-linecap="round" stroke-linejoin="round"/>
<path d="M15.1355 13.6621H16.8567V22.2698H16.8539C15.0816 22.2698 13.1337 21.1931 11.7525 19.2098C9.67848 16.3028 9.11182 14.1055 9.11182 13.6635" stroke="white" stroke-width="1.5" stroke-linecap="round" stroke-linejoin="round"/>
<path d="M23.5987 22.2698C23.5987 22.2698 22.9726 20.9495 21.7018 19.4974C20.8547 18.5043 19.6618 17.9674 18.5767 17.9674C19.6618 17.9674 20.8547 17.4291 21.7018 16.4374C22.9726 14.9839 23.5987 13.6636 23.5987 13.6636" stroke="white" stroke-width="1.5" stroke-linecap="round" stroke-linejoin="round"/>
<path d="M18.5767 17.9688H16.854" stroke="white" stroke-width="1.5" stroke-linecap="round" stroke-linejoin="round"/>
</svg>
