<svg width="34" height="34" viewBox="0 0 34 34" fill="none" xmlns="http://www.w3.org/2000/svg">
<path d="M25.789 8.16299C23.4572 5.82974 20.3561 4.54341 17.0525 4.54199C10.2425 4.54199 4.70195 10.0797 4.70054 16.8868C4.6977 19.0529 5.26579 21.1822 6.34812 23.0592L4.5957 29.4569L11.1435 27.7399C12.9555 28.7259 14.9841 29.243 17.0468 29.243H17.0525C23.8595 29.243 29.4001 23.7038 29.4029 16.8967C29.4044 13.5987 28.1209 10.4977 25.789 8.16299Z" stroke="white" stroke-width="1.5" stroke-linecap="round" stroke-linejoin="round"/>
<path d="M18.5513 19.2104L19.1264 18.6394C19.6549 18.1153 20.4907 18.0487 21.0999 18.4765C21.6892 18.8902 22.2219 19.2614 22.7177 19.607C23.5054 20.1539 23.6003 21.2759 22.9217 21.953L22.4131 22.4616" stroke="white" stroke-width="1.5" stroke-linecap="round" stroke-linejoin="round"/>
<path d="M11.5391 11.5871L12.0476 11.0785C12.7248 10.4013 13.8468 10.4962 14.3936 11.2825C14.7379 11.7783 15.1091 12.311 15.5241 12.9003C15.952 13.5095 15.8868 14.3453 15.3612 14.8737L14.7903 15.4489" stroke="white" stroke-width="1.5" stroke-linecap="round" stroke-linejoin="round"/>
<path d="M22.4133 22.4614C20.3152 24.5496 16.7891 22.7759 14.0054 19.9907" stroke="white" stroke-width="1.5" stroke-linecap="round" stroke-linejoin="round"/>
<path d="M14.0081 19.9948C11.2243 17.2097 9.45068 13.685 11.5388 11.5869" stroke="white" stroke-width="1.5" stroke-linecap="round" stroke-linejoin="round"/>
<path d="M14.79 15.4487C15.242 16.1613 15.8214 16.8668 16.4759 17.5213L16.4787 17.5241C17.1332 18.1786 17.8387 18.7581 18.5513 19.21" stroke="white" stroke-width="1.5" stroke-linecap="round" stroke-linejoin="round"/>
</svg>
